<svg width="32" height="32" viewBox="0 0 32 32" fill="none" xmlns="http://www.w3.org/2000/svg">
<path d="M14.4494 8.5581C14.4494 11.8119 11.8118 14.4496 8.55798 14.4496C5.30421 14.4496 2.6665 11.8119 2.6665 8.5581C2.6665 5.30433 5.30421 2.66663 8.55798 2.66663C11.8118 2.66663 14.4494 5.30433 14.4494 8.5581ZM29.3332 9.79841C29.3332 11.1821 28.9865 12.3907 28.1304 13.2468C27.2743 14.1029 26.0657 14.4496 24.682 14.4496H22.2014C20.8177 14.4496 19.6091 14.1029 18.753 13.2468C17.8968 12.3907 17.5502 11.1821 17.5502 9.79841V7.31779C17.5502 5.93409 17.8968 4.72552 18.753 3.86939C19.6091 3.01325 20.8177 2.66663 22.2014 2.66663H24.682C26.0657 2.66663 27.2743 3.01325 28.1304 3.86939C28.9865 4.72552 29.3332 5.93409 29.3332 7.31779V9.79841Z" fill="white"/>
<path d="M13.2467 28.1305C14.1028 27.2744 14.4494 26.0658 14.4494 24.6821V22.2015C14.4494 20.8178 14.1028 19.6093 13.2467 18.7531C12.3906 17.897 11.182 17.5503 9.79829 17.5503H7.31767C5.93397 17.5503 4.7254 17.897 3.86927 18.7531C3.01313 19.6093 2.6665 20.8178 2.6665 22.2015V24.6821C2.6665 26.0658 3.01313 27.2744 3.86927 28.1305C4.7254 28.9867 5.93397 29.3333 7.31767 29.3333H9.79829C11.182 29.3333 12.3906 28.9867 13.2467 28.1305Z" fill="white"/>
<path d="M23.4417 29.3333C26.6955 29.3333 29.3332 26.6956 29.3332 23.4418C29.3332 20.1881 26.6955 17.5503 23.4417 17.5503C20.1879 17.5503 17.5502 20.1881 17.5502 23.4418C17.5502 26.6956 20.1879 29.3333 23.4417 29.3333Z" fill="white"/>
</svg>
