<svg width="24" height="24" viewBox="0 0 24 24" fill="none" xmlns="http://www.w3.org/2000/svg">
<path d="M16 2C19.3137 2 22 4.68629 22 8V16C22 19.3137 19.3137 22 16 22H8C4.68629 22 2 19.3137 2 16V8C2 4.68629 4.68629 2 8 2H16ZM12 16C11.4477 16 11 16.4477 11 17C11 17.5523 11.4477 18 12 18H12.0098C12.562 18 13.0098 17.5523 13.0098 17C13.0098 16.4477 12.562 16 12.0098 16H12ZM12 6.25C11.5858 6.25 11.25 6.58579 11.25 7V14.1045C11.25 14.5187 11.5858 14.8545 12 14.8545C12.4142 14.8545 12.75 14.5187 12.75 14.1045V7C12.75 6.58579 12.4142 6.25 12 6.25Z" fill="#F58E16"/>
</svg>
