<svg width="32" height="33" viewBox="0 0 32 33" fill="none" xmlns="http://www.w3.org/2000/svg">
<path d="M21.517 17.9C20.5669 17.9 19.7967 17.1298 19.7967 16.1797V10.8348C19.7967 8.74107 18.0934 7.03779 15.9998 7.03779C13.9061 7.03779 12.2027 8.74113 12.2027 10.8348V16.1797C12.2027 17.1298 11.4325 17.9 10.4825 17.9C9.53242 17.9 8.76221 17.1298 8.76221 16.1797V10.8348C8.76221 6.84399 12.009 3.59717 15.9998 3.59717C19.9906 3.59717 23.2373 6.84394 23.2373 10.8347V16.1796C23.2373 17.1298 22.4671 17.9 21.517 17.9Z" fill="#EFEFEF"/>
<g opacity="0.1">
<path d="M10.4825 17.8997C11.4325 17.8997 12.2027 17.1295 12.2027 16.1794V12.3477H8.76221V16.1794C8.76221 17.1295 9.53241 17.8997 10.4825 17.8997Z" fill="#121212"/>
<path d="M19.7969 12.3477V16.1794C19.7969 17.1295 20.5671 17.8997 21.5171 17.8997C22.4672 17.8997 23.2374 17.1295 23.2374 16.1794V12.3477H19.7969Z" fill="#121212"/>
</g>
<path d="M23.4627 14.0679H8.53771C7.65177 14.0679 6.93359 14.7861 6.93359 15.672V27.7993C6.93359 28.6852 7.65177 29.4034 8.53771 29.4034H23.4627C24.3486 29.4034 25.0668 28.6852 25.0668 27.7993V15.6719C25.0668 14.786 24.3486 14.0679 23.4627 14.0679Z" fill="#D9B45C"/>
<path opacity="0.1" d="M17.9764 20.5883C17.9764 19.4967 17.0915 18.6118 15.9999 18.6118C14.9083 18.6118 14.0234 19.4967 14.0234 20.5883C14.0234 21.2193 14.3195 21.7808 14.7799 22.1427V25.9027H17.2198V22.1427C17.6803 21.7808 17.9764 21.2193 17.9764 20.5883Z" fill="#121212"/>
<path d="M14.7799 26.3331H17.2198C17.4573 26.3331 17.6498 26.1406 17.6498 25.9031V22.34C18.1331 21.886 18.4063 21.2589 18.4063 20.5887C18.4063 19.2617 17.3268 18.1821 15.9998 18.1821C14.6728 18.1821 13.5933 19.2617 13.5933 20.5887C13.5933 21.2589 13.8665 21.886 14.3497 22.34V25.9031C14.3498 26.1405 14.5424 26.3331 14.7799 26.3331ZM15.9998 19.0422C16.8525 19.0422 17.5462 19.736 17.5462 20.5886C17.5462 21.0658 17.3304 21.5091 16.954 21.8049C16.8502 21.8865 16.7897 22.0111 16.7897 22.143V25.473H15.2099V22.143C15.2099 22.0111 15.1493 21.8864 15.0456 21.8049C14.6693 21.5092 14.4534 21.0659 14.4534 20.5886C14.4535 19.736 15.1472 19.0422 15.9998 19.0422Z" fill="#121212"/>
<path d="M23.6677 13.6478V10.8341C23.6677 6.60619 20.228 3.1665 16.0001 3.1665C11.7723 3.1665 8.33248 6.60619 8.33248 10.8342V13.6479C7.3068 13.751 6.50342 14.6193 6.50342 15.6717V16.7511C6.50342 16.9886 6.69597 17.1811 6.93347 17.1811C7.17097 17.1811 7.36352 16.9886 7.36352 16.7511V15.6717C7.36352 15.0243 7.89019 14.4977 8.53753 14.4977H23.4625C24.1099 14.4977 24.6365 15.0244 24.6365 15.6717V24.4737C24.6365 24.7112 24.8291 24.9037 25.0666 24.9037C25.3041 24.9037 25.4966 24.7112 25.4966 24.4737V15.6717C25.4968 14.6193 24.6934 13.751 23.6677 13.6478ZM19.367 13.6375H12.6332V10.8342C12.6332 8.97765 14.1436 7.46718 16.0001 7.46718C17.8567 7.46718 19.3671 8.9776 19.3671 10.8342L19.367 13.6375ZM20.2272 13.6375V10.8342C20.2272 8.50338 18.3309 6.60708 16.0001 6.60708C13.6694 6.60708 11.7731 8.50333 11.7731 10.8342V13.6375H9.19264V10.8342C9.19264 7.08046 12.2464 4.02666 16.0001 4.02666C19.7538 4.02666 22.8076 7.08046 22.8076 10.8342V13.6375H20.2272Z" fill="#121212"/>
<path d="M25.0666 25.7641C24.8291 25.7641 24.6366 25.9567 24.6366 26.1942V27.7992C24.6366 28.4466 24.1099 28.9732 23.4625 28.9732H8.53753C7.89014 28.9732 7.36352 28.4466 7.36352 27.7992V18.4716C7.36352 18.2341 7.17097 18.0415 6.93347 18.0415C6.69597 18.0415 6.50342 18.2341 6.50342 18.4716V27.7992C6.50342 28.9209 7.41597 29.8334 8.53758 29.8334H23.4625C24.5842 29.8334 25.4968 28.9209 25.4968 27.7992V26.1942C25.4967 25.9567 25.3041 25.7641 25.0666 25.7641Z" fill="#121212"/>
</svg>
